<svg style="margin-right: 6px" width="12" height="12" fill="none" xmlns="http://www.w3.org/2000/svg">
                <path d="M6 11.817A5.017 5.017 0 01.994 6.811c0-.207.169-.375.375-.375s.375.168.375.375A4.265 4.265 0 006 11.067a4.265 4.265 0 004.256-4.256A4.265 4.265 0 006 2.555a.376.376 0 01-.375-.376c0-.206.169-.374.375-.374a5.017 5.017 0 015.006 5.006A5.017 5.017 0 016 11.817z" fill="#fff"/>
                <path d="M6.75 4.237a.37.37 0 01-.263-.112l-1.65-1.65a.363.363 0 010-.525L6.487.3c.15-.15.375-.15.525 0 .15.15.15.375 0 .525L5.625 2.212 7.012 3.6c.15.15.15.375 0 .525-.056.075-.15.112-.262.112z" fill="#fff"/>
              </svg>