<svg width="20" height="20" viewBox="0 0 20 20" id="anima-logo-icon" fill="none" xmlns="http://www.w3.org/2000/svg">
          <path d="M4.09293 3.00001H16.5327C16.5484 2.99976 16.5638 3.00351 16.5776 3.01092C16.5913 3.01832 16.603 3.02913 16.6114 3.04231C16.6198 3.0555 16.6247 3.07061 16.6256 3.08622C16.6265 3.10182 16.6233 3.1174 16.6165 3.13146C15.5441 5.29706 13.9276 7.14699 11.9253 8.50009C8.69117 10.6822 5.43436 10.9075 4.09389 10.9196C4.08165 10.9198 4.06949 10.9176 4.05811 10.9131C4.04672 10.9086 4.03636 10.9019 4.02761 10.8933C4.01887 10.8848 4.01192 10.8745 4.00718 10.8633C4.00244 10.852 4 10.8399 4 10.8276V3.09198C4 3.07982 4.00241 3.06778 4.00709 3.05656C4.01177 3.04534 4.01863 3.03516 4.02728 3.02661C4.03592 3.01805 4.04617 3.0113 4.05744 3.00673C4.06871 3.00217 4.08077 2.99988 4.09293 3.00001Z" fill="#FF6250"/>
          <path d="M6.77772 17.4446C8.31182 17.4446 9.55545 16.201 9.55545 14.6669C9.55545 13.1328 8.31182 11.8892 6.77772 11.8892C5.24363 11.8892 4 13.1328 4 14.6669C4 16.201 5.24363 17.4446 6.77772 17.4446Z" fill="#FFDF90"/>
          <path d="M12.4559 17.2799C11.6701 16.9799 11.2522 16.1151 11.5185 15.3496L13.6153 9.3656C13.884 8.60003 14.7387 8.22302 15.5245 8.52299C16.3103 8.82344 16.7282 9.68772 16.4619 10.4538L14.365 16.4377C14.0964 17.2033 13.2417 17.5808 12.4559 17.2799Z" fill="#3366FF"/>
        </svg>